<svg width="3316" height="2484" viewBox="0 0 3316 2484" fill="none" xmlns="http://www.w3.org/2000/svg">
<g clip-path="url(#clip0_10_17)">
<path d="M1373.71 791.996C1383.15 793.624 1391.45 794.763 1398.61 795.414C1406.1 796.065 1412.28 796.553 1417.16 796.879C1423.02 797.204 1428.07 797.367 1432.3 797.367C1436.53 797.367 1442.55 797.042 1450.37 796.391C1456.88 795.74 1465.34 794.926 1475.76 793.949C1486.5 792.973 1499.68 791.345 1515.31 789.066C1510.75 790.368 1506.52 794.112 1502.61 800.297C1499.03 806.156 1495.78 812.504 1492.85 819.34C1489.27 827.478 1486.17 836.43 1483.57 846.195C1481.29 854.984 1478.36 867.029 1474.78 882.328C1471.52 897.628 1468.27 914.229 1465.01 932.133C1462.08 950.036 1459.81 968.266 1458.18 986.82C1456.55 1005.05 1456.23 1021.81 1457.2 1037.11C1458.5 1052.41 1461.6 1065.11 1466.48 1075.2C1471.36 1084.96 1478.85 1090.17 1488.94 1090.82C1504.24 1092.13 1516.93 1092.29 1527.03 1091.31C1537.44 1090.01 1545.91 1088.22 1552.42 1085.94C1558.93 1083.66 1563.97 1081.06 1567.55 1078.13C1571.13 1074.87 1573.9 1071.78 1575.85 1068.85C1581.06 1061.36 1586.43 1051.76 1591.97 1040.04C1597.5 1028.32 1602.38 1017.09 1606.62 1006.35C1611.17 995.609 1614.92 986.495 1617.85 979.008C1620.78 971.521 1622.24 967.94 1622.24 968.266C1622.24 968.917 1622.08 972.66 1621.75 979.496C1621.75 986.007 1621.59 993.982 1621.26 1003.42C1621.26 1012.54 1621.1 1022.14 1620.78 1032.23C1620.78 1042.32 1620.61 1050.95 1620.29 1058.11C1619.96 1063.97 1619.64 1070.48 1619.31 1077.64C1618.99 1083.83 1618.66 1091.15 1618.33 1099.61C1618.33 1108.08 1618.01 1117.35 1617.36 1127.45C1603.69 1126.47 1590.67 1125.82 1578.3 1125.49C1565.93 1125.17 1555.02 1125 1545.58 1125C1534.51 1125 1524.26 1125.17 1514.82 1125.49C1504.73 1125.82 1493.01 1126.31 1479.66 1126.96C1468.27 1127.61 1454.11 1128.42 1437.18 1129.4C1420.26 1130.05 1400.72 1131.03 1378.59 1132.33C1381.19 1127.77 1383.31 1123.54 1384.94 1119.63C1386.89 1115.73 1388.35 1112.47 1389.33 1109.87C1390.63 1106.61 1391.45 1103.85 1391.77 1101.57C1393.73 1091.15 1395.35 1077.97 1396.66 1062.02C1397.96 1045.74 1398.93 1028.49 1399.58 1010.26C1400.56 992.029 1401.05 973.474 1401.05 954.594C1401.38 935.388 1401.38 917.647 1401.05 901.371C1400.72 885.095 1400.07 870.935 1399.1 858.891C1398.45 846.846 1397.47 838.546 1396.17 833.988C1394.54 828.78 1392.59 823.572 1390.31 818.363C1388.35 813.806 1385.91 809.249 1382.98 804.691C1380.38 799.809 1377.29 795.577 1373.71 791.996ZM1649.58 927.738L1739.43 928.715C1734.22 948.572 1730.31 965.499 1727.71 979.496C1725.43 993.493 1723.97 1005.21 1723.32 1014.65C1722.01 1025.39 1721.69 1034.51 1722.34 1042C1723.32 1048.83 1724.94 1056.16 1727.22 1063.97C1729.17 1070.48 1732.1 1077.97 1736.01 1086.43C1739.92 1094.89 1745.13 1103.36 1751.64 1111.82C1747.73 1110.52 1743.5 1109.54 1738.94 1108.89C1734.38 1108.24 1730.15 1107.75 1726.24 1107.43C1721.69 1107.1 1717.13 1107.1 1712.57 1107.43C1708.02 1107.75 1702.97 1108.24 1697.44 1108.89C1692.88 1109.54 1687.35 1110.36 1680.83 1111.33C1674.32 1112.31 1667.49 1113.61 1660.33 1115.24C1665.21 1100.59 1668.95 1087.89 1671.56 1077.15C1674.49 1066.41 1676.6 1057.46 1677.91 1050.3C1679.21 1041.83 1680.02 1035 1680.35 1029.79C1680.35 1023.28 1680.35 1015.95 1680.35 1007.82C1680.35 999.353 1680.35 991.215 1680.35 983.402C1680.35 975.59 1680.18 968.754 1679.86 962.895C1679.53 956.71 1678.88 952.803 1677.91 951.176L1673.02 946.293C1671.07 944.665 1668.14 942.387 1664.23 939.457C1660.65 936.202 1655.77 932.296 1649.58 927.738ZM1684.25 852.543C1691.09 848.962 1697.92 847.986 1704.76 849.613C1711.92 851.241 1717.46 854.333 1721.36 858.891C1725.27 863.448 1726.57 868.819 1725.27 875.004C1724.29 881.189 1719.08 887.211 1709.64 893.07C1700.2 898.604 1691.9 900.557 1684.74 898.93C1677.58 897.302 1672.53 893.884 1669.6 888.676C1666.67 883.467 1666.19 877.445 1668.14 870.609C1670.09 863.448 1675.46 857.426 1684.25 852.543ZM1790.7 1163.58C1797.21 1159.02 1802.42 1153 1806.32 1145.51C1810.23 1138.02 1813.16 1130.7 1815.11 1123.54C1817.39 1115.08 1818.86 1106.29 1819.51 1097.17C1819.51 1091.64 1819.18 1082.85 1818.53 1070.8C1817.88 1060.71 1816.9 1046.88 1815.6 1029.3C1814.3 1011.4 1812.35 988.285 1809.74 959.965C1806.16 960.29 1803.07 960.616 1800.46 960.941C1797.86 960.941 1795.74 960.941 1794.12 960.941H1788.74C1787.12 960.941 1785.16 961.104 1782.89 961.43C1780.93 961.755 1778.33 962.243 1775.07 962.895C1772.14 963.546 1768.56 964.359 1764.33 965.336C1764.98 962.732 1765.31 960.128 1765.31 957.523C1765.63 954.594 1765.96 951.99 1766.28 949.711C1766.61 947.107 1766.77 944.665 1766.77 942.387V935.062C1766.77 932.784 1766.77 930.342 1766.77 927.738C1767.1 925.134 1767.42 922.53 1767.75 919.926L1806.32 920.902C1804.7 906.905 1804.04 894.372 1804.37 883.305C1804.7 871.911 1805.18 862.146 1805.83 854.008C1806.81 844.568 1808.11 836.267 1809.74 829.105C1812.02 820.316 1815.11 812.178 1819.02 804.691C1822.92 797.204 1828.3 790.857 1835.13 785.648C1841.97 780.44 1850.43 776.534 1860.52 773.93C1870.61 771 1882.82 769.535 1897.14 769.535C1913.42 769.861 1926.28 771.977 1935.72 775.883C1945.16 779.464 1952.16 784.184 1956.71 790.043C1961.27 795.577 1963.88 801.924 1964.53 809.086C1965.18 816.247 1965.01 823.246 1964.04 830.082C1963.39 836.592 1962.25 842.615 1960.62 848.148C1959.32 853.682 1958.83 857.751 1959.16 860.355C1959.48 862.309 1960.29 864.913 1961.6 868.168C1962.57 870.772 1964.04 874.027 1965.99 877.934C1968.27 881.84 1971.52 886.234 1975.76 891.117C1970.55 890.466 1965.34 889.978 1960.13 889.652C1954.92 889.001 1950.04 888.513 1945.48 888.188C1940.27 887.862 1935.23 887.699 1930.35 887.699C1925.46 888.025 1920.42 888.35 1915.21 888.676C1910.65 889.327 1905.77 889.978 1900.56 890.629C1895.35 890.954 1890.47 891.931 1885.91 893.559C1892.42 889.001 1897.47 884.281 1901.05 879.398C1904.63 874.516 1907.4 870.121 1909.35 866.215C1911.63 861.658 1913.09 857.1 1913.74 852.543C1914.07 847.009 1913.74 840.824 1912.77 833.988C1912.12 826.827 1910.65 820.316 1908.37 814.457C1906.1 808.598 1903.33 803.878 1900.07 800.297C1896.82 796.391 1892.91 794.926 1888.35 795.902C1881.52 798.507 1875.17 804.854 1869.31 814.945C1864.43 823.409 1859.71 836.267 1855.15 853.52C1850.59 870.447 1847.66 894.047 1846.36 924.32C1852.55 924.971 1858.24 925.46 1863.45 925.785C1868.99 925.785 1873.87 925.948 1878.1 926.273C1882.98 926.599 1887.54 926.762 1891.77 926.762C1896 926.762 1900.72 926.599 1905.93 926.273C1910.49 925.948 1915.86 925.785 1922.05 925.785C1928.23 925.46 1935.07 924.971 1942.55 924.32L1941.58 949.711C1935.72 950.362 1930.02 950.85 1924.49 951.176C1918.95 951.501 1914.07 951.827 1909.84 952.152C1904.96 952.478 1900.4 952.803 1896.17 953.129C1891.61 953.454 1886.89 953.78 1882.01 954.105C1877.77 954.431 1872.89 954.919 1867.36 955.57C1862.15 956.221 1856.62 956.872 1850.76 957.523C1855.31 994.307 1859.22 1024.09 1862.48 1046.88C1866.06 1069.34 1869.15 1086.76 1871.75 1099.12C1874.36 1113.77 1876.64 1124.19 1878.59 1130.38C1880.54 1135.58 1882.82 1140.14 1885.42 1144.05C1887.7 1147.63 1890.47 1151.05 1893.73 1154.3C1896.98 1157.56 1900.72 1159.67 1904.96 1160.65C1894.54 1159.02 1885.59 1157.72 1878.1 1156.74C1870.61 1156.09 1864.27 1155.6 1859.06 1155.28C1853.2 1154.95 1848.15 1154.79 1843.92 1154.79C1840.01 1155.11 1835.29 1155.6 1829.76 1156.25C1820.32 1157.23 1807.3 1159.67 1790.7 1163.58ZM1962.08 1163.58C1968.6 1159.02 1973.8 1153 1977.71 1145.51C1981.62 1138.02 1984.55 1130.7 1986.5 1123.54C1988.78 1115.08 1990.24 1106.29 1990.89 1097.17C1990.89 1091.64 1990.57 1082.85 1989.92 1070.8C1989.27 1060.71 1988.29 1046.88 1986.99 1029.3C1985.68 1011.4 1983.73 988.285 1981.13 959.965C1977.55 960.29 1974.45 960.616 1971.85 960.941C1969.25 960.941 1967.13 960.941 1965.5 960.941H1960.13C1958.5 960.941 1956.55 961.104 1954.27 961.43C1952.32 961.755 1949.71 962.243 1946.46 962.895C1943.53 963.546 1939.95 964.359 1935.72 965.336C1936.37 962.732 1936.69 960.128 1936.69 957.523C1937.02 954.594 1937.35 951.99 1937.67 949.711C1938 947.107 1938.16 944.665 1938.16 942.387V935.062C1938.16 932.784 1938.16 930.342 1938.16 927.738C1938.48 925.134 1938.81 922.53 1939.14 919.926L1977.71 920.902C1976.08 906.905 1975.43 894.372 1975.76 883.305C1976.08 871.911 1976.57 862.146 1977.22 854.008C1978.2 844.568 1979.5 836.267 1981.13 829.105C1983.41 820.316 1986.5 812.178 1990.41 804.691C1994.31 797.204 1999.68 790.857 2006.52 785.648C2013.35 780.44 2021.82 776.534 2031.91 773.93C2042 771 2054.21 769.535 2068.53 769.535C2084.81 769.861 2097.66 771.977 2107.1 775.883C2116.54 779.464 2123.54 784.184 2128.1 790.043C2132.66 795.577 2135.26 801.924 2135.91 809.086C2136.56 816.247 2136.4 823.246 2135.42 830.082C2134.77 836.592 2133.63 842.615 2132.01 848.148C2130.7 853.682 2130.22 857.751 2130.54 860.355C2130.87 862.309 2131.68 864.913 2132.98 868.168C2133.96 870.772 2135.42 874.027 2137.38 877.934C2139.66 881.84 2142.91 886.234 2147.14 891.117C2141.93 890.466 2136.73 889.978 2131.52 889.652C2126.31 889.001 2121.43 888.513 2116.87 888.188C2111.66 887.862 2106.62 887.699 2101.73 887.699C2096.85 888.025 2091.8 888.35 2086.6 888.676C2082.04 889.327 2077.16 889.978 2071.95 890.629C2066.74 890.954 2061.86 891.931 2057.3 893.559C2063.81 889.001 2068.86 884.281 2072.44 879.398C2076.02 874.516 2078.78 870.121 2080.74 866.215C2083.02 861.658 2084.48 857.1 2085.13 852.543C2085.46 847.009 2085.13 840.824 2084.16 833.988C2083.5 826.827 2082.04 820.316 2079.76 814.457C2077.48 808.598 2074.71 803.878 2071.46 800.297C2068.2 796.391 2064.3 794.926 2059.74 795.902C2052.91 798.507 2046.56 804.854 2040.7 814.945C2035.82 823.409 2031.1 836.267 2026.54 853.52C2021.98 870.447 2019.05 894.047 2017.75 924.32C2023.93 924.971 2029.63 925.46 2034.84 925.785C2040.37 925.785 2045.26 925.948 2049.49 926.273C2054.37 926.599 2058.93 926.762 2063.16 926.762C2067.39 926.762 2072.11 926.599 2077.32 926.273C2081.88 925.948 2087.25 925.785 2093.43 925.785C2099.62 925.46 2106.45 924.971 2113.94 924.32L2112.96 949.711C2107.1 950.362 2101.41 950.85 2095.87 951.176C2090.34 951.501 2085.46 951.827 2081.23 952.152C2076.34 952.478 2071.79 952.803 2067.55 953.129C2063 953.454 2058.28 953.78 2053.39 954.105C2049.16 954.431 2044.28 954.919 2038.74 955.57C2033.54 956.221 2028 956.872 2022.14 957.523C2026.7 994.307 2030.61 1024.09 2033.86 1046.88C2037.44 1069.34 2040.54 1086.76 2043.14 1099.12C2045.74 1113.77 2048.02 1124.19 2049.98 1130.38C2051.93 1135.58 2054.21 1140.14 2056.81 1144.05C2059.09 1147.63 2061.86 1151.05 2065.11 1154.3C2068.37 1157.56 2072.11 1159.67 2076.34 1160.65C2065.93 1159.02 2056.97 1157.72 2049.49 1156.74C2042 1156.09 2035.65 1155.6 2030.44 1155.28C2024.58 1154.95 2019.54 1154.79 2015.31 1154.79C2011.4 1155.11 2006.68 1155.6 2001.15 1156.25C1991.71 1157.23 1978.69 1159.67 1962.08 1163.58ZM2238.94 1067.39C2248.05 1067.39 2256.52 1066.41 2264.33 1064.46C2270.84 1062.83 2277.03 1060.23 2282.89 1056.64C2289.07 1052.74 2293.14 1047.04 2295.09 1039.55C2301.6 1040.86 2307.14 1042 2311.69 1042.97C2316.25 1043.62 2320.16 1044.27 2323.41 1044.93C2326.99 1045.9 2330.09 1046.55 2332.69 1046.88C2335.29 1047.53 2338.39 1048.18 2341.97 1048.83C2345.22 1049.48 2349.13 1050.3 2353.69 1051.27C2358.57 1051.92 2364.27 1052.9 2370.78 1054.2C2365.89 1053.55 2360.85 1054.04 2355.64 1055.67C2350.76 1057.3 2346.04 1059.09 2341.48 1061.04C2336.27 1063.32 2331.39 1066.08 2326.83 1069.34C2323.9 1071.29 2320.48 1074.22 2316.58 1078.13C2313 1082.04 2307.79 1085.78 2300.95 1089.36C2294.12 1092.94 2285 1096.03 2273.61 1098.64C2262.54 1100.92 2248.22 1101.73 2230.64 1101.08C2209.48 1100.43 2191.74 1096.68 2177.42 1089.85C2163.09 1082.69 2151.54 1074.06 2142.75 1063.97C2133.96 1053.55 2127.61 1042.32 2123.71 1030.28C2119.8 1018.23 2117.68 1007 2117.36 996.586C2117.03 986.169 2120.13 975.264 2126.64 963.871C2133.15 952.478 2142.26 942.061 2153.98 932.621C2166.02 923.181 2180.51 915.531 2197.44 909.672C2214.36 903.487 2232.92 900.395 2253.1 900.395C2264.82 900.395 2275.56 901.859 2285.33 904.789C2295.42 907.393 2304.53 910.974 2312.67 915.531C2321.13 920.089 2328.46 925.297 2334.64 931.156C2340.83 936.69 2346.04 942.387 2350.27 948.246C2354.5 954.431 2358.08 960.941 2361.01 967.777C2363.61 973.637 2365.73 980.31 2367.36 987.797C2368.99 995.284 2369.47 1002.93 2368.82 1010.75C2344.08 1011.4 2324.06 1011.89 2308.76 1012.21C2293.79 1012.54 2282.07 1012.7 2273.61 1012.7H2251.64H2235.03C2229.17 1012.7 2221.52 1012.86 2212.08 1013.19C2202.64 1013.51 2191.09 1014 2177.42 1014.65C2179.04 1027.67 2183.11 1037.76 2189.62 1044.93C2196.46 1051.76 2203.62 1056.97 2211.11 1060.55C2219.57 1064.46 2228.85 1066.74 2238.94 1067.39ZM2194.99 979.496C2205.41 980.147 2214.04 980.635 2220.87 980.961C2228.04 981.286 2233.89 981.612 2238.45 981.938C2243.33 982.263 2247.24 982.426 2250.17 982.426H2262.38C2270.52 982.426 2285.65 981.938 2307.79 980.961C2306.81 966.638 2303.72 955.733 2298.51 948.246C2293.63 940.759 2288.42 935.225 2282.89 931.645C2276.38 927.738 2269.21 925.46 2261.4 924.809C2240.24 925.134 2224.45 929.529 2214.04 937.992C2203.95 946.456 2197.6 960.29 2194.99 979.496ZM2383.47 912.113C2389.66 912.439 2395.19 912.602 2400.07 912.602C2405.28 912.276 2409.68 911.951 2413.26 911.625C2417.49 911.299 2421.23 910.974 2424.49 910.648C2429.37 909.997 2434.42 909.184 2439.62 908.207C2444.18 907.556 2448.9 906.742 2453.78 905.766C2458.99 904.464 2464.04 902.999 2468.92 901.371C2466.97 906.254 2465.34 910.486 2464.04 914.066C2462.74 917.647 2461.76 920.74 2461.11 923.344C2460.13 926.273 2459.64 928.715 2459.64 930.668C2459.32 932.947 2459.16 935.714 2459.16 938.969C2458.83 944.503 2458.83 953.454 2459.16 965.824C2476.08 951.176 2490.24 939.783 2501.64 931.645C2513.35 923.507 2522.63 917.159 2529.47 912.602C2537.61 907.393 2543.95 903.975 2548.51 902.348C2560.55 900.395 2571.13 903.161 2580.25 910.648C2584.16 913.904 2587.9 918.298 2591.48 923.832C2595.06 929.04 2598.15 936.039 2600.76 944.828C2603.36 953.617 2605.31 964.197 2606.62 976.566C2607.92 988.611 2608.08 1003.1 2607.1 1020.02C2600.27 1020.67 2594.08 1021.33 2588.55 1021.98C2583.34 1022.63 2578.95 1023.12 2575.37 1023.44C2571.13 1024.09 2567.23 1024.42 2563.65 1024.42L2550.46 1025.88C2545.91 1026.53 2540.21 1027.18 2533.37 1027.84C2526.86 1028.16 2518.89 1028.81 2509.45 1029.79C2523.12 1018.72 2531.91 1009.12 2535.82 1000.98C2540.05 992.517 2541.84 985.518 2541.19 979.984C2540.54 973.799 2537.61 968.428 2532.4 963.871C2526.21 960.29 2519.54 958.988 2512.38 959.965C2506.19 960.616 2499.03 963.383 2490.89 968.266C2482.76 973.148 2474.13 982.263 2465.01 995.609C2465.67 1016.44 2466.32 1033.7 2466.97 1047.37C2467.94 1061.04 2468.76 1072.11 2469.41 1080.57C2470.39 1090.34 2471.2 1097.99 2471.85 1103.52C2472.83 1108.4 2474.78 1113.61 2477.71 1119.14C2479.99 1123.7 2483.24 1128.75 2487.48 1134.28C2491.71 1139.82 2497.24 1145.35 2504.08 1150.88C2489.75 1150.23 2478.04 1150.23 2468.92 1150.88C2463.39 1151.21 2458.5 1151.53 2454.27 1151.86C2449.71 1152.51 2444.83 1153.16 2439.62 1153.81C2435.07 1154.46 2429.7 1155.11 2423.51 1155.77C2417.65 1156.74 2411.14 1157.72 2403.98 1158.7C2406.58 1155.11 2408.7 1150.88 2410.33 1146C2411.95 1141.44 2413.26 1137.05 2414.23 1132.82C2415.54 1127.93 2416.51 1122.89 2417.16 1117.68C2417.49 1113.12 2417.65 1106.29 2417.65 1097.17C2417.98 1088.06 2417.81 1077.8 2417.16 1066.41C2416.84 1054.69 2416.35 1042.65 2415.7 1030.28C2415.05 1017.58 2414.23 1005.7 2413.26 994.633C2412.28 983.565 2411.14 973.962 2409.84 965.824C2408.86 957.361 2407.72 951.501 2406.42 948.246C2404.79 944.34 2402.84 940.434 2400.56 936.527C2398.61 932.947 2396.17 929.203 2393.24 925.297C2390.31 921.065 2387.05 916.671 2383.47 912.113Z" fill="url(#paint0_linear_10_17)"/>
<path d="M1133.71 1156C1143.15 1157.62 1151.45 1158.76 1158.61 1159.41C1166.1 1160.07 1172.28 1160.55 1177.16 1160.88C1183.02 1161.2 1188.07 1161.37 1192.3 1161.37C1196.53 1161.37 1202.55 1161.04 1210.37 1160.39C1216.88 1159.74 1225.34 1158.93 1235.76 1157.95C1246.5 1156.97 1259.68 1155.35 1275.31 1153.07C1270.75 1154.37 1266.52 1158.11 1262.61 1164.3C1259.03 1170.16 1255.78 1176.5 1252.85 1183.34C1249.27 1191.48 1246.17 1200.43 1243.57 1210.2C1241.29 1218.98 1238.36 1231.03 1234.78 1246.33C1231.52 1261.63 1228.27 1278.23 1225.01 1296.13C1222.08 1314.04 1219.81 1332.27 1218.18 1350.82C1216.55 1369.05 1216.23 1385.81 1217.2 1401.11C1218.5 1416.41 1221.6 1429.11 1226.48 1439.2C1231.36 1448.96 1238.85 1454.17 1248.94 1454.82C1264.24 1456.13 1276.93 1456.29 1287.03 1455.31C1297.44 1454.01 1305.91 1452.22 1312.42 1449.94C1318.93 1447.66 1323.97 1445.06 1327.55 1442.13C1331.13 1438.87 1333.9 1435.78 1335.85 1432.85C1341.06 1425.36 1346.43 1415.76 1351.97 1404.04C1357.5 1392.32 1362.38 1381.09 1366.62 1370.35C1371.17 1359.61 1374.92 1350.49 1377.85 1343.01C1380.78 1335.52 1382.24 1331.94 1382.24 1332.27C1382.24 1332.92 1382.08 1336.66 1381.75 1343.5C1381.75 1350.01 1381.59 1357.98 1381.26 1367.42C1381.26 1376.54 1381.1 1386.14 1380.78 1396.23C1380.78 1406.32 1380.61 1414.95 1380.29 1422.11C1379.96 1427.97 1379.64 1434.48 1379.31 1441.64C1378.99 1447.83 1378.66 1455.15 1378.33 1463.61C1378.33 1472.08 1378.01 1481.35 1377.36 1491.45C1363.69 1490.47 1350.67 1489.82 1338.3 1489.49C1325.93 1489.17 1315.02 1489 1305.58 1489C1294.51 1489 1284.26 1489.17 1274.82 1489.49C1264.73 1489.82 1253.01 1490.31 1239.66 1490.96C1228.27 1491.61 1214.11 1492.42 1197.18 1493.4C1180.26 1494.05 1160.72 1495.03 1138.59 1496.33C1141.19 1491.77 1143.31 1487.54 1144.94 1483.63C1146.89 1479.73 1148.35 1476.47 1149.33 1473.87C1150.63 1470.61 1151.45 1467.85 1151.77 1465.57C1153.73 1455.15 1155.35 1441.97 1156.66 1426.02C1157.96 1409.74 1158.93 1392.49 1159.58 1374.26C1160.56 1356.03 1161.05 1337.47 1161.05 1318.59C1161.38 1299.39 1161.38 1281.65 1161.05 1265.37C1160.72 1249.1 1160.07 1234.93 1159.1 1222.89C1158.45 1210.85 1157.47 1202.55 1156.17 1197.99C1154.54 1192.78 1152.59 1187.57 1150.31 1182.36C1148.35 1177.81 1145.91 1173.25 1142.98 1168.69C1140.38 1163.81 1137.29 1159.58 1133.71 1156ZM1409.58 1291.74L1499.43 1292.71C1494.22 1312.57 1490.31 1329.5 1487.71 1343.5C1485.43 1357.49 1483.97 1369.21 1483.32 1378.65C1482.01 1389.39 1481.69 1398.51 1482.34 1406C1483.32 1412.83 1484.94 1420.16 1487.22 1427.97C1489.17 1434.48 1492.1 1441.97 1496.01 1450.43C1499.92 1458.89 1505.13 1467.36 1511.64 1475.82C1507.73 1474.52 1503.5 1473.54 1498.94 1472.89C1494.38 1472.24 1490.15 1471.75 1486.24 1471.43C1481.69 1471.1 1477.13 1471.1 1472.57 1471.43C1468.02 1471.75 1462.97 1472.24 1457.44 1472.89C1452.88 1473.54 1447.35 1474.36 1440.83 1475.33C1434.32 1476.31 1427.49 1477.61 1420.33 1479.24C1425.21 1464.59 1428.95 1451.89 1431.56 1441.15C1434.49 1430.41 1436.6 1421.46 1437.91 1414.3C1439.21 1405.83 1440.02 1399 1440.35 1393.79C1440.35 1387.28 1440.35 1379.95 1440.35 1371.82C1440.35 1363.35 1440.35 1355.21 1440.35 1347.4C1440.35 1339.59 1440.18 1332.75 1439.86 1326.89C1439.53 1320.71 1438.88 1316.8 1437.91 1315.18L1433.02 1310.29C1431.07 1308.67 1428.14 1306.39 1424.23 1303.46C1420.65 1300.2 1415.77 1296.3 1409.58 1291.74ZM1444.25 1216.54C1451.09 1212.96 1457.92 1211.99 1464.76 1213.61C1471.92 1215.24 1477.46 1218.33 1481.36 1222.89C1485.27 1227.45 1486.57 1232.82 1485.27 1239C1484.29 1245.19 1479.08 1251.21 1469.64 1257.07C1460.2 1262.6 1451.9 1264.56 1444.74 1262.93C1437.58 1261.3 1432.53 1257.88 1429.6 1252.68C1426.67 1247.47 1426.19 1241.45 1428.14 1234.61C1430.09 1227.45 1435.46 1221.43 1444.25 1216.54ZM1526.77 1278.55C1534.26 1277.9 1540.61 1277.25 1545.82 1276.6C1551.35 1275.95 1555.91 1275.3 1559.49 1274.65C1563.72 1274 1567.3 1273.35 1570.23 1272.7C1573.16 1272.37 1576.41 1271.72 1579.99 1270.74C1583.25 1270.09 1586.83 1269.28 1590.74 1268.3C1594.97 1267 1599.53 1265.53 1604.41 1263.91L1601.48 1325.92C1608.64 1314.52 1616.94 1305.9 1626.38 1300.04C1635.82 1293.85 1644.77 1289.3 1653.24 1286.37C1663.33 1282.79 1673.42 1280.67 1683.51 1280.02C1693.93 1280.35 1703.53 1281.97 1712.32 1284.9C1719.81 1287.51 1727.29 1291.58 1734.78 1297.11C1742.59 1302.64 1748.61 1310.78 1752.85 1321.52C1763.91 1310.13 1774.82 1301.34 1785.56 1295.16C1796.63 1288.65 1806.39 1283.76 1814.86 1280.51C1824.95 1276.93 1834.39 1274.81 1843.18 1274.16C1854.9 1273.83 1865.64 1275.79 1875.41 1280.02C1885.5 1284.25 1894.29 1289.62 1901.77 1296.13C1909.26 1302.32 1915.28 1308.99 1919.84 1316.15C1924.4 1322.99 1927 1329.01 1927.65 1334.22C1928.63 1341.38 1928.14 1350.66 1926.19 1362.05C1924.23 1373.12 1921.95 1384.51 1919.35 1396.23C1916.75 1407.62 1914.3 1418.2 1912.03 1427.97C1910.07 1437.41 1909.26 1444.08 1909.58 1447.99C1910.56 1451.24 1912.84 1455.15 1916.42 1459.71C1919.68 1463.61 1924.4 1468.5 1930.58 1474.36C1937.09 1479.89 1946.37 1486.4 1958.41 1493.89C1948 1493.56 1938.72 1493.24 1930.58 1492.91C1922.77 1492.58 1916.1 1492.1 1910.56 1491.45C1904.05 1490.79 1898.35 1490.31 1893.47 1489.98C1889.57 1489.98 1884.85 1489.65 1879.31 1489C1874.75 1488.68 1868.73 1488.19 1861.24 1487.54C1854.08 1486.89 1845.78 1486.24 1836.34 1485.59C1839.92 1484.61 1842.85 1482.82 1845.13 1480.21C1847.41 1477.29 1849.36 1474.52 1850.99 1471.91C1852.62 1468.66 1853.92 1465.08 1854.9 1461.17C1855.55 1457.92 1856.2 1452.71 1856.85 1445.55C1857.5 1438.39 1857.99 1430.25 1858.32 1421.13C1858.97 1412.02 1859.29 1402.42 1859.29 1392.32C1859.62 1382.23 1859.62 1372.63 1859.29 1363.52C1858.97 1354.4 1858.32 1346.1 1857.34 1338.61C1856.36 1331.13 1855.06 1325.43 1853.43 1321.52C1852.13 1318.59 1849.85 1316.32 1846.6 1314.69C1843.34 1312.73 1839.6 1311.6 1835.37 1311.27C1831.13 1310.62 1826.9 1310.78 1822.67 1311.76C1818.44 1312.41 1814.7 1313.71 1811.44 1315.66C1808.51 1317.94 1804.6 1321.04 1799.72 1324.94C1795.49 1328.52 1789.96 1333.4 1783.12 1339.59C1776.28 1345.77 1767.66 1353.59 1757.24 1363.03C1756.26 1383.54 1755.45 1400.14 1754.8 1412.83C1754.47 1425.2 1754.15 1434.64 1753.82 1441.15C1753.5 1448.96 1753.33 1454.34 1753.33 1457.27C1753.01 1459.87 1753.17 1462.31 1753.82 1464.59C1754.47 1469.47 1756.43 1474.03 1759.68 1478.26C1755.78 1477.29 1751.54 1476.63 1746.99 1476.31C1742.76 1475.98 1738.85 1475.66 1735.27 1475.33C1731.04 1475.01 1726.8 1474.84 1722.57 1474.84C1718.99 1474.84 1715.09 1475.01 1710.85 1475.33C1707.27 1475.66 1702.88 1476.15 1697.67 1476.8C1692.46 1477.12 1686.77 1477.61 1680.58 1478.26C1683.18 1476.63 1685.3 1474.68 1686.93 1472.4C1688.56 1470.12 1689.86 1468.01 1690.83 1466.05C1692.14 1463.78 1693.11 1461.66 1693.76 1459.71C1694.09 1457.75 1694.74 1453.03 1695.72 1445.55C1696.69 1437.73 1697.35 1428.62 1697.67 1418.2C1698 1407.79 1698 1396.88 1697.67 1385.49C1697.35 1373.77 1696.21 1363.19 1694.25 1353.75C1692.3 1343.98 1689.21 1336.01 1684.98 1329.82C1681.07 1323.64 1675.86 1320.87 1669.35 1321.52C1661.54 1322.17 1653.56 1324.13 1645.42 1327.38C1638.59 1329.99 1631.26 1333.89 1623.45 1339.1C1615.64 1344.31 1608.32 1351.31 1601.48 1360.1C1600.18 1384.51 1599.36 1403.88 1599.04 1418.2C1599.04 1432.53 1599.2 1443.43 1599.53 1450.92C1599.85 1459.71 1600.18 1465.73 1600.5 1468.98C1600.83 1471.26 1601.64 1473.54 1602.94 1475.82C1603.92 1477.77 1605.06 1480.05 1606.36 1482.66C1607.99 1485.26 1609.78 1487.7 1611.73 1489.98L1534.1 1486.07C1536.7 1484.77 1538.98 1483.14 1540.93 1481.19C1542.89 1478.91 1544.51 1476.63 1545.82 1474.36C1547.12 1471.75 1548.42 1469.15 1549.72 1466.54C1550.7 1464.26 1551.51 1458.89 1552.16 1450.43C1553.14 1441.97 1553.95 1432.04 1554.6 1420.64C1555.26 1408.93 1555.74 1396.72 1556.07 1384.02C1556.72 1371 1557.05 1358.96 1557.05 1347.89C1557.37 1336.5 1557.53 1326.89 1557.53 1319.08C1557.53 1310.94 1557.37 1306.06 1557.05 1304.43C1556.07 1301.18 1554.28 1297.76 1551.67 1294.18C1549.4 1291.58 1546.3 1288.81 1542.4 1285.88C1538.49 1282.62 1533.28 1280.18 1526.77 1278.55ZM1960.85 1167.23C1968.34 1169.18 1975.18 1170.64 1981.36 1171.62C1987.87 1172.27 1993.41 1172.76 1997.96 1173.09C2003.5 1173.41 2008.54 1173.57 2013.1 1173.57C2017.66 1173.57 2023.35 1173.25 2030.19 1172.6C2042.23 1171.62 2059.32 1169.18 2081.46 1165.27C2077.88 1167.88 2074.46 1170.48 2071.21 1173.09C2068.28 1175.36 2065.67 1177.64 2063.39 1179.92L2056.07 1187.25C2051.84 1193.11 2047.61 1203.03 2043.37 1217.03C2039.79 1229.08 2035.89 1246 2031.66 1267.81C2027.75 1289.62 2024.17 1318.59 2020.91 1354.73C2036.86 1339.1 2051.84 1327.38 2065.83 1319.57C2080.16 1311.43 2092.69 1305.57 2103.43 1301.99C2116.13 1298.09 2127.68 1295.97 2138.1 1295.64C2151.45 1296.62 2163 1299.39 2172.77 1303.95C2182.86 1308.18 2191.32 1313.39 2198.16 1319.57C2205.32 1325.43 2211.02 1331.61 2215.25 1338.12C2219.81 1344.31 2223.22 1349.84 2225.5 1354.73C2226.8 1357.98 2227.78 1364 2228.43 1372.79C2229.41 1381.26 2229.57 1391.02 2228.92 1402.09C2228.27 1413.16 2226.48 1424.88 2223.55 1437.25C2220.95 1449.29 2216.55 1460.52 2210.37 1470.94C2204.51 1481.03 2196.69 1489.49 2186.93 1496.33C2177.49 1503.16 2165.61 1506.91 2151.28 1507.56C2134.68 1507.56 2118.57 1505.61 2102.94 1501.7C2089.6 1498.44 2075.44 1492.75 2060.46 1484.61C2045.82 1476.15 2033.28 1464.1 2022.87 1448.48C2022.87 1452.38 2022.87 1456.29 2022.87 1460.2C2022.87 1463.78 2023.03 1466.87 2023.35 1469.47C2023.68 1473.05 2024.01 1476.15 2024.33 1478.75C2024.66 1481.68 2025.47 1484.77 2026.77 1488.03C2027.75 1490.63 2029.21 1493.89 2031.17 1497.79C2033.45 1501.37 2036.38 1504.95 2039.96 1508.54C2036.38 1508.21 2032.79 1508.05 2029.21 1508.05C2025.63 1507.72 2022.05 1507.72 2018.47 1508.05C2014.57 1508.37 2010.66 1508.7 2006.75 1509.02C2002.85 1509.35 1998.78 1509.84 1994.55 1510.49C1990.96 1511.14 1986.73 1511.95 1981.85 1512.93C1976.97 1513.91 1971.92 1515.05 1966.71 1516.35C1967.69 1513.42 1968.5 1509.19 1969.16 1503.65C1969.81 1497.79 1970.46 1491.45 1971.11 1484.61C1972.08 1477.45 1972.74 1469.96 1973.06 1462.15C1973.71 1454.34 1974.36 1446.52 1975.01 1438.71C1976.32 1420.81 1977.46 1401.28 1978.43 1380.12C1979.41 1347.24 1979.57 1316.64 1978.92 1288.32C1978.6 1276.28 1977.94 1264.07 1976.97 1251.7C1976.32 1239.33 1975.34 1227.77 1974.04 1217.03C1972.74 1205.96 1970.95 1196.2 1968.67 1187.73C1966.71 1178.95 1964.11 1172.11 1960.85 1167.23ZM2024.33 1405.02C2029.54 1414.46 2035.07 1422.6 2040.93 1429.43C2046.79 1435.94 2052.65 1441.48 2058.51 1446.04C2064.37 1450.59 2070.07 1454.17 2075.6 1456.78C2081.46 1459.38 2086.99 1461.33 2092.2 1462.64C2104.25 1465.89 2116.13 1466.22 2127.85 1463.61C2139.57 1460.36 2148.68 1453.85 2155.19 1444.08C2161.7 1434.32 2166.75 1423.25 2170.33 1410.88C2171.95 1405.02 2172.93 1397.53 2173.26 1388.42C2173.91 1379.3 2172.93 1370.51 2170.33 1362.05C2168.05 1353.26 2163.82 1345.61 2157.63 1339.1C2151.45 1332.27 2142.49 1328.2 2130.78 1326.89C2122.64 1326.89 2113.2 1329.17 2102.46 1333.73C2093.02 1337.64 2081.79 1344.15 2068.76 1353.26C2055.74 1362.05 2040.93 1375.23 2024.33 1392.81V1405.02ZM2251.87 1291.74L2341.71 1292.71C2336.51 1312.57 2332.6 1329.5 2329.99 1343.5C2327.72 1357.49 2326.25 1369.21 2325.6 1378.65C2324.3 1389.39 2323.97 1398.51 2324.62 1406C2325.6 1412.83 2327.23 1420.16 2329.51 1427.97C2331.46 1434.48 2334.39 1441.97 2338.3 1450.43C2342.2 1458.89 2347.41 1467.36 2353.92 1475.82C2350.01 1474.52 2345.78 1473.54 2341.23 1472.89C2336.67 1472.24 2332.44 1471.75 2328.53 1471.43C2323.97 1471.1 2319.42 1471.1 2314.86 1471.43C2310.3 1471.75 2305.26 1472.24 2299.72 1472.89C2295.16 1473.54 2289.63 1474.36 2283.12 1475.33C2276.61 1476.31 2269.77 1477.61 2262.61 1479.24C2267.49 1464.59 2271.24 1451.89 2273.84 1441.15C2276.77 1430.41 2278.89 1421.46 2280.19 1414.3C2281.49 1405.83 2282.31 1399 2282.63 1393.79C2282.63 1387.28 2282.63 1379.95 2282.63 1371.82C2282.63 1363.35 2282.63 1355.21 2282.63 1347.4C2282.63 1339.59 2282.47 1332.75 2282.14 1326.89C2281.82 1320.71 2281.17 1316.8 2280.19 1315.18L2275.31 1310.29C2273.35 1308.67 2270.42 1306.39 2266.52 1303.46C2262.94 1300.2 2258.05 1296.3 2251.87 1291.74ZM2286.54 1216.54C2293.37 1212.96 2300.21 1211.99 2307.05 1213.61C2314.21 1215.24 2319.74 1218.33 2323.65 1222.89C2327.55 1227.45 2328.86 1232.82 2327.55 1239C2326.58 1245.19 2321.37 1251.21 2311.93 1257.07C2302.49 1262.6 2294.19 1264.56 2287.03 1262.93C2279.86 1261.3 2274.82 1257.88 2271.89 1252.68C2268.96 1247.47 2268.47 1241.45 2270.42 1234.61C2272.38 1227.45 2277.75 1221.43 2286.54 1216.54ZM2386.64 1456.29C2388.91 1445.55 2390.54 1436.11 2391.52 1427.97C2392.82 1419.51 2393.8 1412.51 2394.45 1406.97C2395.1 1400.46 2395.42 1394.93 2395.42 1390.37C2395.1 1384.84 2394.77 1378.33 2394.45 1370.84C2394.45 1363.03 2394.12 1355.38 2393.47 1347.89C2393.15 1340.08 2392.66 1333.24 2392.01 1327.38C2391.36 1321.2 2390.54 1316.8 2389.57 1314.2C2388.26 1311.6 2386.47 1308.83 2384.19 1305.9C2379.64 1300.36 2372.96 1294.99 2364.17 1289.79C2371.66 1288.16 2378.01 1286.86 2383.22 1285.88C2388.75 1284.58 2393.31 1283.44 2396.89 1282.46C2400.8 1281.16 2404.21 1280.02 2407.14 1279.04C2409.75 1278.07 2412.84 1277.09 2416.42 1276.11C2419.35 1275.46 2422.93 1274.65 2427.16 1273.67C2431.39 1272.7 2436.28 1271.56 2441.81 1270.25L2440.35 1314.69C2450.76 1302.32 2461.34 1293.04 2472.08 1286.86C2482.83 1280.67 2492.92 1276.28 2502.36 1273.67C2513.1 1270.42 2523.68 1268.79 2534.1 1268.79C2547.12 1269.44 2559.16 1271.56 2570.23 1275.14C2581.62 1278.72 2591.39 1282.95 2599.53 1287.83C2607.99 1292.39 2614.83 1297.27 2620.03 1302.48C2625.24 1307.69 2628.33 1312.25 2629.31 1316.15C2633.22 1328.85 2634.19 1340.57 2632.24 1351.31C2630.29 1361.73 2627.68 1371.98 2624.43 1382.07C2621.5 1391.84 2618.89 1401.6 2616.62 1411.37C2614.66 1421.13 2615.48 1431.71 2619.06 1443.11C2620.36 1446.04 2621.66 1448.96 2622.96 1451.89C2624.27 1454.5 2625.89 1457.1 2627.85 1459.71C2629.8 1462.31 2632.08 1464.43 2634.68 1466.05C2631.1 1465.73 2627.52 1465.57 2623.94 1465.57C2620.36 1465.24 2617.1 1464.92 2614.17 1464.59C2610.59 1464.26 2607.34 1463.94 2604.41 1463.61C2601.15 1463.29 2596.76 1463.12 2591.23 1463.12C2581.79 1463.12 2567.14 1463.61 2547.28 1464.59C2550.21 1457.75 2552.49 1452.06 2554.12 1447.5C2556.07 1442.62 2557.7 1438.71 2559 1435.78C2560.3 1432.2 2561.28 1429.43 2561.93 1427.48C2565.83 1418.04 2568.11 1407.3 2568.76 1395.25C2569.74 1383.21 2568.93 1371 2566.32 1358.63C2565.35 1354.4 2563.72 1349.36 2561.44 1343.5C2559.16 1337.64 2556.07 1331.94 2552.16 1326.41C2548.58 1320.87 2544.19 1316.15 2538.98 1312.25C2534.1 1308.34 2528.4 1306.06 2521.89 1305.41C2515.38 1304.76 2508.05 1306.39 2499.92 1310.29C2492.1 1314.2 2483.64 1321.36 2474.53 1331.78C2467.69 1340.57 2462.32 1351.31 2458.41 1364C2454.83 1374.75 2452.39 1388.26 2451.09 1404.53C2449.79 1420.48 2451.74 1439.2 2456.95 1460.68C2452.39 1460.03 2448.16 1459.71 2444.25 1459.71C2440.35 1459.38 2437.09 1459.06 2434.49 1458.73C2431.23 1458.4 2428.3 1458.08 2425.7 1457.75C2422.77 1457.75 2419.51 1457.59 2415.93 1457.27C2412.68 1457.27 2408.61 1457.27 2403.73 1457.27C2398.84 1456.94 2393.15 1456.61 2386.64 1456.29ZM2894.94 1302.97C2893.96 1296.46 2893.15 1291.09 2892.49 1286.86C2891.84 1282.3 2891.19 1278.72 2890.54 1276.11C2889.89 1272.86 2889.4 1270.42 2889.08 1268.79C2888.43 1267.16 2887.61 1265.37 2886.64 1263.42C2885.98 1261.79 2884.85 1259.84 2883.22 1257.56C2881.92 1255.28 2880.29 1252.68 2878.33 1249.75C2882.57 1251.05 2886.8 1251.86 2891.03 1252.19C2895.59 1252.51 2899.82 1252.84 2903.73 1253.16C2907.96 1253.49 2912.35 1253.49 2916.91 1253.16C2921.47 1253.16 2926.67 1253 2932.53 1252.68C2937.74 1252.35 2943.93 1252.19 2951.09 1252.19C2958.58 1251.86 2967.04 1251.37 2976.48 1250.72C2970.95 1252.02 2966.23 1254.3 2962.32 1257.56C2958.74 1260.49 2955.65 1263.74 2953.04 1267.32C2950.11 1271.23 2947.67 1275.46 2945.72 1280.02C2944.09 1284.25 2943.11 1292.39 2942.79 1304.43C2942.46 1316.15 2942.46 1330.15 2942.79 1346.43C2943.11 1362.38 2943.44 1379.63 2943.76 1398.18C2944.42 1416.74 2944.74 1434.48 2944.74 1451.41C2945.07 1468.33 2945.07 1483.8 2944.74 1497.79C2944.42 1511.46 2943.6 1521.56 2942.3 1528.07C2937.74 1548.57 2929.28 1565.18 2916.91 1577.87C2904.54 1590.89 2888.26 1597.89 2868.08 1598.87C2843.67 1599.84 2824.3 1597.57 2809.98 1592.03C2795.98 1586.5 2785.07 1579.66 2777.26 1571.52C2769.45 1563.71 2763.59 1555.74 2759.68 1547.6C2755.78 1539.46 2751.71 1533.27 2747.48 1529.04C2743.57 1525.46 2739.66 1522.04 2735.76 1518.79C2732.18 1516.18 2728.43 1513.58 2724.53 1510.98C2720.95 1508.37 2717.36 1506.74 2713.78 1506.09C2723.22 1506.42 2731.69 1506.58 2739.17 1506.58C2746.66 1506.58 2753.01 1506.58 2758.22 1506.58C2764.08 1506.58 2769.29 1506.42 2773.84 1506.09H2789.47H2833.9C2827.39 1508.05 2822.51 1510.16 2819.25 1512.44C2816 1515.05 2813.72 1517.65 2812.42 1520.25C2811.11 1523.18 2810.46 1526.11 2810.46 1529.04C2811.77 1536.86 2816 1542.55 2823.16 1546.13C2830.32 1549.71 2840.09 1551.83 2852.46 1552.48C2864.5 1553.13 2872.8 1552.81 2877.36 1551.5C2881.92 1550.53 2885.5 1548.57 2888.1 1545.64C2893.31 1537.83 2897.7 1527.74 2901.28 1515.37C2903.89 1504.95 2905.68 1491.45 2906.66 1474.84C2907.96 1457.92 2906.49 1437.25 2902.26 1412.83C2891.84 1427.15 2879.8 1437.9 2866.13 1445.06C2852.46 1452.22 2839.43 1457.43 2827.07 1460.68C2812.42 1464.26 2797.61 1466.05 2782.63 1466.05C2743.24 1464.43 2713.78 1455.31 2694.25 1438.71C2674.72 1422.11 2665.77 1399.81 2667.4 1371.82C2668.37 1357.82 2672.61 1343.82 2680.09 1329.82C2687.91 1315.83 2698 1303.29 2710.37 1292.23C2723.06 1281.16 2737.55 1272.37 2753.82 1265.86C2770.1 1259.35 2787.03 1256.58 2804.6 1257.56C2817.95 1258.86 2830.48 1261.3 2842.2 1264.88C2852.29 1268.14 2862.22 1272.7 2871.99 1278.55C2882.08 1284.41 2889.73 1292.55 2894.94 1302.97ZM2739.66 1351.8C2737.71 1364.49 2738.52 1376.37 2742.1 1387.44C2746.01 1398.51 2751.38 1408.11 2758.22 1416.25C2765.05 1424.06 2772.7 1430.25 2781.17 1434.8C2789.63 1439.04 2797.61 1440.99 2805.09 1440.66C2820.72 1440.34 2834.23 1433.34 2845.62 1419.67C2857.01 1405.67 2863.85 1384.84 2866.13 1357.17C2867.1 1343.5 2865.31 1331.78 2860.76 1322.01C2856.52 1311.92 2851.15 1303.78 2844.64 1297.6C2838.13 1291.41 2831.3 1287.02 2824.14 1284.41C2816.97 1281.81 2811.28 1280.67 2807.05 1281C2801.19 1281.65 2794.68 1283.44 2787.51 1286.37C2780.68 1288.97 2774.01 1293.04 2767.49 1298.57C2760.98 1303.78 2755.13 1310.78 2749.92 1319.57C2745.03 1328.36 2741.62 1339.1 2739.66 1351.8Z" fill="url(#paint1_linear_10_17)"/>
<path d="M710.19 547.641C755.763 547.641 796.779 555.453 833.237 571.078C870.997 585.401 905.503 601.677 936.753 619.906C969.305 638.135 999.904 655.062 1028.55 670.688C1057.2 685.01 1086.49 692.172 1116.44 692.172C1139.88 690.87 1166.57 687.615 1196.52 682.406C1222.56 677.198 1252.51 669.385 1286.36 658.969C1321.52 647.25 1360.58 630.323 1403.55 608.188C1360.58 649.854 1325.42 685.01 1298.08 713.656C1272.04 741 1251.86 763.786 1237.53 782.016C1220.61 802.849 1208.24 819.125 1200.42 830.844C1192.61 845.167 1180.89 866.651 1165.27 895.297C1150.95 921.339 1131.41 956.495 1106.67 1000.77C1081.93 1043.73 1050.68 1100.38 1012.92 1170.69C1012.92 1080.84 1003.81 1011.18 985.581 961.703C968.654 912.224 949.774 874.464 928.94 848.422C904.201 818.474 876.206 799.594 844.956 791.781C816.31 787.875 787.664 793.083 759.018 807.406C730.372 820.427 701.727 839.958 673.081 866C645.737 892.042 619.044 923.292 593.003 959.75C568.263 994.906 545.477 1032.02 524.643 1071.08C505.112 1110.14 488.836 1149.85 475.815 1190.22C462.794 1229.28 454.331 1265.74 450.425 1299.59C446.518 1329.54 445.867 1364.7 448.471 1405.06C451.076 1444.12 456.935 1484.49 466.05 1526.16C475.164 1566.52 486.883 1606.23 501.206 1645.3C515.529 1684.36 533.107 1719.52 553.94 1750.77C576.076 1780.71 600.815 1805.45 628.159 1824.98C655.503 1843.21 686.753 1851.68 721.909 1850.38C760.971 1847.77 799.383 1836.05 837.143 1815.22C869.695 1798.29 902.899 1772.25 936.753 1737.09C970.607 1700.64 999.904 1649.2 1024.64 1582.8L1313.71 1635.53C1230.37 1737.09 1148.99 1813.27 1069.57 1864.05C991.44 1914.83 921.128 1950.64 858.628 1971.47C785.711 1994.91 716.701 2005.97 651.596 2004.67C569.565 1995.56 492.742 1970.82 421.128 1930.45C349.513 1890.09 287.664 1841.26 235.581 1783.97C184.8 1725.38 145.086 1661.57 116.44 1592.56C87.7944 1523.55 75.4246 1455.84 79.3308 1389.44C81.935 1345.17 91.0496 1293.73 106.675 1235.14C122.3 1175.24 143.133 1114.05 169.175 1051.55C196.518 989.047 229.07 927.849 266.831 867.953C304.591 808.057 346.258 754.672 391.831 707.797C437.404 659.62 486.883 621.208 540.268 592.562C594.956 562.615 651.596 547.641 710.19 547.641Z" fill="url(#paint2_linear_10_17)"/>
</g>
<defs>
<linearGradient id="paint0_linear_10_17" x1="1992.44" y1="668" x2="1992.44" y2="1272" gradientUnits="userSpaceOnUse">
<stop stop-color="#006DB5"/>
<stop offset="1" stop-color="#666666"/>
</linearGradient>
<linearGradient id="paint1_linear_10_17" x1="1123.94" y1="1334" x2="2973.94" y2="1334" gradientUnits="userSpaceOnUse">
<stop stop-color="#006DB5"/>
<stop offset="1" stop-color="#666666"/>
</linearGradient>
<linearGradient id="paint2_linear_10_17" x1="1457.39" y1="80" x2="1457.39" y2="4357.31" gradientUnits="userSpaceOnUse">
<stop stop-color="#006DB5"/>
<stop offset="1" stop-color="#2C8B90"/>
</linearGradient>
<clipPath id="clip0_10_17">
<rect width="3316" height="2484" fill="white"/>
</clipPath>
</defs>
</svg>
