<?xml version="1.0" encoding="UTF-8"?>
<svg xmlns="http://www.w3.org/2000/svg" xmlns:xlink="http://www.w3.org/1999/xlink" width="3003" height="3003" viewBox="0 0 3003 3003">
<path fill-rule="nonzero" fill="rgb(99.609375%, 99.609375%, 99.609375%)" fill-opacity="1" d="M 1.042969 0 C 0.765625 0 0.5 0.109375 0.304688 0.308594 C 0.109375 0.5 0 0.769531 0 1.039062 L 0 3001.042969 C 0 3001.617188 0.46875 3002.085938 1.042969 3002.085938 L 3001.039062 3002.085938 C 3001.320312 3002.085938 3001.589844 3001.976562 3001.78125 3001.78125 C 3001.980469 3001.585938 3002.089844 3001.320312 3002.089844 3001.042969 L 3002.089844 1.039062 C 3002.089844 0.46875 3001.621094 0 3001.039062 0 Z M 1.042969 0 "/>
<path fill-rule="nonzero" fill="rgb(0%, 0%, 0%)" fill-opacity="1" d="M 475.730469 1608.261719 C 475.730469 1608.261719 509.644531 1620.289062 577.421875 1602.238281 C 645.207031 1584.199219 683.105469 1466.621094 701.042969 1434.71875 C 718.972656 1402.789062 932.355469 1237.28125 932.355469 1237.28125 L 1061.960938 1438.710938 C 1065.929688 1412.78125 1219.5 1235.289062 1277.320312 1187.429688 C 1335.140625 1139.609375 1379 1057.789062 1375.019531 1011.949219 C 1371.050781 966.089844 1496.660156 830.5 1502.640625 830.5 C 1508.621094 830.5 1552.5 930.210938 1560.449219 954.179688 C 1568.429688 978.128906 1584.539062 996.058594 1624.269531 1021.960938 C 1664.019531 1047.871094 1809.71875 1251.320312 1809.71875 1251.320312 L 1967.238281 1129.679688 C 1987.191406 1265.289062 2228.460938 1514.53125 2266.339844 1536.5 C 2304.21875 1558.46875 2308.210938 1536.5 2332.121094 1582.351562 C 2356.050781 1628.199219 2808.730469 1903.390625 2808.730469 1903.390625 L 278.332031 1903.410156 Z M 1869.519531 1823.601562 C 1869.519531 1823.601562 1911.398438 1660.070312 1975.230469 1692 C 2024.789062 1716.820312 2033.421875 1759.53125 2034.808594 1777.421875 C 2034.070312 1778.710938 2033.71875 1780.109375 2033.761719 1781.601562 C 2033.800781 1783.078125 2034.230469 1784.460938 2035.050781 1785.730469 C 2035.121094 1782.941406 2035.039062 1780.179688 2034.808594 1777.421875 C 2037.820312 1772.191406 2048.941406 1766.671875 2082.929688 1767.769531 C 2144.730469 1769.789062 2188.589844 1793.71875 2188.589844 1751.839844 C 2188.421875 1728.480469 2189.738281 1705.199219 2192.570312 1681.988281 C 2192.570312 1681.988281 2308.210938 1761.730469 2401.929688 1751.769531 C 2401.929688 1751.769531 1983.179688 1558.328125 1951.28125 1265.191406 C 1951.28125 1265.191406 1803.71875 1366.878906 1805.738281 1416.761719 C 1807.75 1466.601562 1839.609375 1512.460938 1787.691406 1530.429688 C 1735.769531 1548.371094 1703.929688 1570.320312 1703.929688 1570.320312 C 1703.929688 1570.320312 1777.730469 1604.230469 1751.808594 1666.019531 C 1725.871094 1727.820312 1642.148438 1795.660156 1642.148438 1795.660156 C 1642.148438 1795.660156 1865.550781 1743.871094 1869.519531 1823.601562 Z M 1510.609375 1462.539062 C 1526.558594 1454.578125 1516.628906 1444.488281 1520.570312 1404.75 C 1524.519531 1365 1548.5 1398.730469 1584.378906 1426.648438 C 1620.269531 1454.570312 1745.898438 1265.140625 1745.898438 1265.140625 L 1504.609375 991.878906 C 1504.609375 991.878906 1516.660156 1043.75 1510.648438 1089.640625 C 1504.609375 1135.5 1436.878906 1127.539062 1436.878906 1127.539062 C 1436.878906 1127.539062 1464.789062 1215.28125 1438.871094 1265.140625 C 1421.859375 1297.820312 1380.140625 1303.03125 1353.359375 1302.738281 C 1345.371094 1301.601562 1337.359375 1301.03125 1329.289062 1300.988281 C 1337.289062 1302.128906 1345.289062 1302.710938 1353.359375 1302.738281 C 1383.449219 1306.871094 1432.640625 1320.808594 1444.859375 1366.828125 C 1457.691406 1415.398438 1384.679688 1509.960938 1342.140625 1559.761719 C 1330.96875 1569.179688 1321.339844 1579.980469 1313.25 1592.148438 C 1313.25 1592.148438 1325.289062 1579.460938 1342.140625 1559.761719 C 1398.578125 1509.960938 1497.449219 1469.289062 1510.609375 1462.648438 Z M 832.660156 1673.949219 C 884.496094 1614.089844 986.082031 1608.140625 1030.070312 1544.320312 C 1074.058594 1480.511719 938.34375 1348.738281 938.34375 1348.738281 C 904.429688 1346.75 924.390625 1448.460938 908.257812 1544.320312 C 892.136719 1640.191406 694.941406 1739.898438 694.941406 1739.898438 C 694.941406 1739.898438 780.792969 1733.898438 832.660156 1674.058594 Z M 832.660156 1673.949219 "/>
<path fill-rule="nonzero" fill="rgb(0%, 0%, 0%)" fill-opacity="1" d="M 475.730469 1608.261719 C 475.730469 1608.261719 486.808594 1612.191406 508.953125 1612.191406 C 525.554688 1612.191406 548.378906 1609.980469 577.421875 1602.238281 C 631.765625 1587.769531 666.902344 1509.328125 687.945312 1462.359375 C 693.148438 1450.738281 697.488281 1441.050781 701.042969 1434.71875 C 718.972656 1402.789062 932.359375 1237.28125 932.355469 1237.28125 L 1061.960938 1438.710938 C 1065.929688 1412.78125 1219.5 1235.289062 1277.320312 1187.429688 C 1335.140625 1139.609375 1379 1057.789062 1375.019531 1011.949219 C 1371.058594 966.191406 1496.140625 831.070312 1502.609375 830.5 C 1502.621094 830.5 1502.640625 830.5 1502.640625 830.5 C 1508.621094 830.5 1552.5 930.210938 1560.449219 954.179688 C 1568.429688 978.128906 1584.539062 996.058594 1624.269531 1021.960938 C 1664.019531 1047.871094 1809.71875 1251.320312 1809.71875 1251.320312 L 1967.238281 1129.679688 C 1987.191406 1265.289062 2228.460938 1514.53125 2266.339844 1536.5 C 2280.089844 1544.46875 2289.378906 1546.660156 2296.761719 1548.398438 C 2301.648438 1549.550781 2305.71875 1550.511719 2309.691406 1552.808594 C 2316.269531 1556.628906 2322.628906 1564.140625 2332.121094 1582.351562 C 2356.050781 1628.199219 2808.730469 1903.390625 2808.730469 1903.390625 L 278.332031 1903.410156 L 475.730469 1608.261719 M 475.730469 1608.261719 L 278.332031 1903.410156 L 2808.730469 1903.390625 C 2808.730469 1903.390625 2356.050781 1628.199219 2332.121094 1582.351562 C 2322.628906 1564.140625 2316.269531 1556.628906 2309.691406 1552.808594 C 2305.71875 1550.511719 2301.648438 1549.550781 2296.761719 1548.398438 C 2289.378906 1546.660156 2280.089844 1544.46875 2266.339844 1536.5 C 2228.460938 1514.53125 1987.191406 1265.289062 1967.238281 1129.679688 L 1809.71875 1251.320312 C 1809.71875 1251.320312 1664.019531 1047.871094 1624.269531 1021.960938 C 1584.539062 996.058594 1568.429688 978.128906 1560.449219 954.179688 C 1552.5 930.210938 1508.621094 830.5 1502.640625 830.5 C 1502.640625 830.5 1502.621094 830.5 1502.609375 830.5 C 1496.140625 831.070312 1371.058594 966.191406 1375.019531 1011.949219 C 1379 1057.789062 1335.140625 1139.609375 1277.320312 1187.429688 C 1219.5 1235.289062 1065.929688 1412.78125 1061.960938 1438.710938 L 932.355469 1237.28125 C 932.359375 1237.28125 718.972656 1402.789062 701.042969 1434.71875 C 697.488281 1441.050781 693.148438 1450.738281 687.945312 1462.359375 C 666.902344 1509.328125 631.765625 1587.769531 577.421875 1602.238281 C 548.378906 1609.980469 525.554688 1612.191406 508.953125 1612.191406 C 486.808594 1612.191406 475.730469 1608.261719 475.730469 1608.261719 Z M 1869.519531 1823.601562 C 1869.519531 1823.601562 1904.28125 1687.859375 1958.730469 1687.859375 C 1964.050781 1687.859375 1969.550781 1689.160156 1975.230469 1692 C 2024.789062 1716.820312 2033.421875 1759.53125 2034.808594 1777.421875 C 2034.070312 1778.710938 2033.71875 1780.109375 2033.761719 1781.601562 C 2033.800781 1783.078125 2034.230469 1784.460938 2035.050781 1785.730469 C 2035.121094 1782.941406 2035.039062 1780.179688 2034.808594 1777.421875 C 2037.820312 1772.191406 2048.941406 1766.671875 2082.929688 1767.769531 C 2101.058594 1768.371094 2117.628906 1770.839844 2132.019531 1772.988281 C 2143.039062 1774.640625 2152.761719 1776.089844 2160.910156 1776.359375 C 2177.851562 1776.910156 2187.949219 1772.328125 2188.558594 1753.679688 C 2188.578125 1753.089844 2188.589844 1752.460938 2188.589844 1751.839844 C 2188.421875 1728.480469 2189.738281 1705.199219 2192.570312 1681.988281 C 2192.570312 1681.988281 2295.011719 1752.628906 2385.199219 1752.628906 C 2390.828125 1752.628906 2396.421875 1752.359375 2401.929688 1751.769531 C 2401.929688 1751.769531 1983.179688 1558.328125 1951.28125 1265.191406 C 1951.28125 1265.191406 1805.71875 1365.5 1805.71875 1415.730469 C 1805.71875 1416.078125 1805.730469 1416.410156 1805.738281 1416.761719 C 1806.308594 1430.859375 1809.269531 1444.648438 1812.050781 1457.578125 C 1814.488281 1468.980469 1816.800781 1479.730469 1817.191406 1489.421875 C 1817.921875 1507.558594 1811.949219 1522.039062 1787.691406 1530.429688 C 1735.769531 1548.371094 1703.929688 1570.320312 1703.929688 1570.320312 C 1703.929688 1570.320312 1757.320312 1594.851562 1757.320312 1640.210938 C 1757.320312 1648.179688 1755.679688 1656.789062 1751.808594 1666.019531 C 1725.871094 1727.820312 1642.148438 1795.660156 1642.148438 1795.660156 C 1642.148438 1795.660156 1713.46875 1779.121094 1776.230469 1779.121094 C 1824.550781 1779.121094 1867.789062 1788.921875 1869.519531 1823.601562 M 1869.519531 1823.601562 C 1867.789062 1788.921875 1824.550781 1779.121094 1776.230469 1779.121094 C 1713.46875 1779.121094 1642.148438 1795.660156 1642.148438 1795.660156 C 1642.148438 1795.660156 1725.871094 1727.820312 1751.808594 1666.019531 C 1755.679688 1656.789062 1757.320312 1648.179688 1757.320312 1640.210938 C 1757.320312 1594.851562 1703.929688 1570.320312 1703.929688 1570.320312 C 1703.929688 1570.320312 1735.769531 1548.371094 1787.691406 1530.429688 C 1811.949219 1522.039062 1817.921875 1507.558594 1817.191406 1489.421875 C 1816.800781 1479.730469 1814.488281 1468.980469 1812.050781 1457.578125 C 1809.269531 1444.648438 1806.308594 1430.859375 1805.738281 1416.761719 C 1805.730469 1416.410156 1805.71875 1416.078125 1805.71875 1415.730469 C 1805.71875 1365.5 1951.28125 1265.191406 1951.28125 1265.191406 C 1983.179688 1558.328125 2401.929688 1751.769531 2401.929688 1751.769531 C 2396.421875 1752.359375 2390.828125 1752.628906 2385.199219 1752.628906 C 2295.011719 1752.628906 2192.570312 1681.988281 2192.570312 1681.988281 C 2189.738281 1705.199219 2188.421875 1728.480469 2188.589844 1751.839844 C 2188.589844 1752.460938 2188.578125 1753.089844 2188.558594 1753.679688 C 2187.949219 1772.328125 2177.851562 1776.910156 2160.910156 1776.359375 C 2152.761719 1776.089844 2143.039062 1774.640625 2132.019531 1772.988281 C 2117.628906 1770.839844 2101.058594 1768.371094 2082.929688 1767.769531 C 2048.941406 1766.671875 2037.820312 1772.191406 2034.808594 1777.421875 C 2035.039062 1780.179688 2035.121094 1782.941406 2035.050781 1785.730469 C 2034.230469 1784.460938 2033.800781 1783.078125 2033.761719 1781.601562 C 2033.71875 1780.109375 2034.070312 1778.710938 2034.808594 1777.421875 C 2033.421875 1759.53125 2024.789062 1716.820312 1975.230469 1692 C 1969.550781 1689.160156 1964.050781 1687.859375 1958.730469 1687.859375 C 1904.28125 1687.859375 1869.519531 1823.601562 1869.519531 1823.601562 Z M 1510.609375 1462.539062 C 1520.671875 1457.519531 1520.429688 1451.648438 1519.878906 1438.019531 C 1519.550781 1430.050781 1519.121094 1419.421875 1520.570312 1404.75 C 1521.941406 1390.960938 1525.71875 1386.019531 1531.570312 1386.601562 C 1538.769531 1387.308594 1549.121094 1396.429688 1561.980469 1407.75 C 1568.769531 1413.738281 1576.269531 1420.339844 1584.378906 1426.648438 C 1604.820312 1442.550781 1654.359375 1387.96875 1693.230469 1338.019531 C 1722.609375 1300.25 1745.898438 1265.140625 1745.898438 1265.140625 L 1504.609375 991.878906 C 1504.609375 991.878906 1512.328125 1025.101562 1512.328125 1061.898438 C 1512.328125 1071.070312 1511.851562 1080.480469 1510.648438 1089.640625 C 1504.609375 1135.5 1436.878906 1127.539062 1436.878906 1127.539062 C 1436.878906 1127.539062 1449.890625 1168.460938 1449.890625 1210.289062 C 1449.890625 1229.710938 1447.089844 1249.328125 1438.871094 1265.140625 C 1421.859375 1297.820312 1380.140625 1303.03125 1353.359375 1302.738281 C 1345.371094 1301.601562 1337.359375 1301.03125 1329.289062 1300.988281 C 1337.28125 1302.128906 1345.289062 1302.710938 1353.359375 1302.738281 C 1383.449219 1306.871094 1432.640625 1320.808594 1444.859375 1366.828125 C 1457.691406 1415.398438 1384.679688 1509.960938 1342.140625 1559.761719 C 1330.96875 1569.179688 1321.339844 1579.980469 1313.25 1592.148438 C 1313.25 1592.148438 1325.289062 1579.460938 1342.140625 1559.761719 C 1390.480469 1517.101562 1469.96875 1481.140625 1500.039062 1467.53125 C 1505.070312 1465.261719 1508.730469 1463.601562 1510.609375 1462.648438 L 1510.609375 1462.539062 M 1510.609375 1462.539062 L 1510.609375 1462.648438 C 1508.730469 1463.601562 1505.070312 1465.261719 1500.039062 1467.53125 C 1469.96875 1481.140625 1390.480469 1517.101562 1342.140625 1559.761719 C 1325.289062 1579.460938 1313.25 1592.148438 1313.25 1592.148438 C 1321.339844 1579.980469 1330.96875 1569.179688 1342.140625 1559.761719 C 1384.679688 1509.960938 1457.691406 1415.398438 1444.859375 1366.828125 C 1432.640625 1320.808594 1383.449219 1306.871094 1353.359375 1302.738281 C 1345.289062 1302.710938 1337.28125 1302.128906 1329.289062 1300.988281 C 1337.359375 1301.03125 1345.371094 1301.601562 1353.359375 1302.738281 C 1380.140625 1303.03125 1421.859375 1297.820312 1438.871094 1265.140625 C 1447.089844 1249.328125 1449.890625 1229.710938 1449.890625 1210.289062 C 1449.890625 1168.460938 1436.878906 1127.539062 1436.878906 1127.539062 C 1436.878906 1127.539062 1504.609375 1135.5 1510.648438 1089.640625 C 1511.851562 1080.480469 1512.328125 1071.070312 1512.328125 1061.898438 C 1512.328125 1025.101562 1504.609375 991.878906 1504.609375 991.878906 L 1745.898438 1265.140625 C 1745.898438 1265.140625 1722.609375 1300.25 1693.230469 1338.019531 C 1654.359375 1387.96875 1604.820312 1442.550781 1584.378906 1426.648438 C 1576.269531 1420.339844 1568.769531 1413.738281 1561.980469 1407.75 C 1549.121094 1396.429688 1538.769531 1387.308594 1531.570312 1386.601562 C 1525.71875 1386.019531 1521.941406 1390.960938 1520.570312 1404.75 C 1519.121094 1419.421875 1519.550781 1430.050781 1519.878906 1438.019531 C 1520.429688 1451.648438 1520.671875 1457.519531 1510.609375 1462.539062 Z M 832.660156 1673.949219 C 857.363281 1645.421875 893.367188 1629.140625 929.050781 1613 C 964.105469 1597.140625 998.851562 1581.429688 1022.269531 1554.378906 C 1025.039062 1551.191406 1027.640625 1547.839844 1030.070312 1544.320312 C 1074.058594 1480.511719 938.34375 1348.75 938.34375 1348.738281 C 923.503906 1347.871094 918.980469 1366.851562 917.234375 1396.511719 C 916.558594 1408 916.296875 1421.078125 916.015625 1435.238281 C 915.683594 1451.921875 915.324219 1470.070312 914.21875 1488.839844 C 913.148438 1507.03125 911.378906 1525.78125 908.257812 1544.320312 C 892.148438 1640.109375 695.234375 1739.75 694.941406 1739.898438 C 694.941406 1739.898438 780.792969 1733.898438 832.660156 1674.058594 L 832.660156 1673.949219 M 832.660156 1673.949219 L 832.660156 1674.058594 C 780.792969 1733.898438 694.941406 1739.898438 694.941406 1739.898438 C 695.234375 1739.75 892.148438 1640.109375 908.257812 1544.320312 C 911.378906 1525.78125 913.148438 1507.03125 914.21875 1488.839844 C 915.324219 1470.070312 915.683594 1451.921875 916.015625 1435.238281 C 916.296875 1421.078125 916.558594 1408 917.234375 1396.511719 C 918.980469 1366.851562 923.503906 1347.871094 938.34375 1348.738281 C 938.34375 1348.75 1074.058594 1480.511719 1030.070312 1544.320312 C 1027.640625 1547.839844 1025.039062 1551.191406 1022.269531 1554.378906 C 998.851562 1581.429688 964.105469 1597.140625 929.050781 1613 C 893.367188 1629.140625 857.363281 1645.421875 832.660156 1673.949219 Z M 832.660156 1673.949219 "/>
</svg>
