<svg width="719" height="996" viewBox="0 0 719 996" fill="none" xmlns="http://www.w3.org/2000/svg">
<path d="M277.114 913L265.13 780.2C258.639 776.742 252.523 772.592 246.781 767.75C241.039 762.908 235.422 757.721 229.929 752.188L140.803 804.062L58.418 606.938L135.561 526.013C135.061 521.171 134.812 516.502 134.812 512.006V483.994C134.812 479.498 135.061 474.829 135.561 469.987L58.418 389.062L140.803 191.938L229.929 243.812C235.422 238.279 241.164 233.092 247.155 228.25C253.147 223.408 259.139 219.258 265.13 215.8L277.114 83H441.885L453.868 215.8C460.359 219.258 466.475 223.408 472.217 228.25C477.959 233.092 483.577 238.279 489.069 243.812L578.195 191.938L660.581 389.062L583.438 469.987C583.937 474.829 584.187 479.498 584.187 483.994V512.006C584.187 516.502 583.687 521.171 582.689 526.013L659.832 606.938L577.446 804.062L489.069 752.188C483.577 757.721 477.835 762.908 471.843 767.75C465.851 772.592 459.86 776.742 453.868 780.2L441.885 913H277.114ZM360.997 643.25C389.957 643.25 414.672 629.071 435.144 600.713C455.616 572.354 465.851 538.117 465.851 498C465.851 457.883 455.616 423.646 435.144 395.288C414.672 366.929 389.957 352.75 360.997 352.75C331.538 352.75 306.698 366.929 286.476 395.288C266.254 423.646 256.143 457.883 256.143 498C256.143 538.117 266.254 572.354 286.476 600.713C306.698 629.071 331.538 643.25 360.997 643.25Z" fill="url(#paint0_linear_48_127)"/>
<defs>
<linearGradient id="paint0_linear_48_127" x1="359.499" y1="83" x2="359.499" y2="913" gradientUnits="userSpaceOnUse">
<stop stop-color="#006DB5"/>
<stop offset="1" stop-color="#2C8B90"/>
</linearGradient>
</defs>
</svg>
